<svg width="22" height="22" viewBox="0 0 22 22" fill="none" xmlns="http://www.w3.org/2000/svg">
<path d="M3.96833 2.05316C3.9722 0.712093 3.99326 0.0509825 4.03261 0.0304787C4.06475 0.013854 4.42384 0 5.56929 0L5.597 4.07306L9.55923 4.10077L9.58693 5.56929H5.597V9.67006H3.98994L3.96223 5.597L0 5.56929V4.07306L3.96223 4.04535L3.96833 2.05316Z" fill="white" fill-opacity="0.6"/>
<path d="M12.7312 4.91815C12.7229 4.59065 12.7257 4.26591 12.7368 4.19719L12.7573 4.07251L21.6953 4.10077V5.48616L12.7456 5.51387L12.7312 4.91815Z" fill="white" fill-opacity="0.6"/>
<path d="M16.3975 11.6462C16.5355 11.4993 16.6824 11.4112 16.8741 11.3602C17.0265 11.3192 17.2509 11.2998 17.3729 11.317C17.4948 11.3336 17.6632 11.3813 17.7469 11.4229C17.8306 11.4644 17.963 11.5669 18.0412 11.6506C18.1193 11.7349 18.2196 11.8906 18.2639 11.997C18.3088 12.1039 18.3454 12.3533 18.346 12.5511C18.3465 12.8664 18.3238 12.9457 18.1647 13.1867C18.0644 13.3375 17.8954 13.512 17.7885 13.5747C17.6427 13.6589 17.4964 13.6872 17.2027 13.6872C16.8758 13.6872 16.7744 13.6639 16.5932 13.5453C16.4518 13.4533 16.3216 13.2976 16.2224 13.102C16.1216 12.9036 16.0695 12.7157 16.07 12.5511C16.0706 12.4142 16.0994 12.202 16.1343 12.0801C16.1692 11.9582 16.2873 11.7631 16.3975 11.6462Z" fill="white" fill-opacity="0.6"/>
<path d="M0.592395 13.2909C0.658894 13.2045 0.886653 12.9651 1.09834 12.7589C1.31003 12.5533 1.50509 12.3854 1.53114 12.3854C1.55774 12.3854 2.29643 13.102 4.76576 15.5713L8.00703 12.3583L9.06048 13.4378L5.84637 16.6519L7.43957 18.2451C8.3157 19.1218 9.03278 19.8632 9.03333 19.8937C9.03333 19.9242 8.83993 20.1381 8.60386 20.3686C8.36723 20.5986 8.12839 20.823 8.07297 20.8674C7.98043 20.9405 7.84577 20.8197 4.76576 17.7325L3.17255 19.3257C2.29643 20.2018 1.55441 20.9189 1.52393 20.9195C1.49346 20.9195 1.25073 20.7017 0.984185 20.4346C0.717635 20.1675 0.499296 19.9242 0.499296 19.8937C0.499296 19.8632 1.21582 19.1218 3.68515 16.6519L0.471034 13.4489L0.592395 13.2909Z" fill="white" fill-opacity="0.6"/>
<path d="M12.4686 16.9844V16.2363V15.4882H21.9447L21.9718 15.6128C21.9862 15.6816 21.999 16.0185 22.0001 16.9844H12.4686Z" fill="white" fill-opacity="0.6"/>
<path d="M16.4058 19.0625C16.5006 18.971 16.6447 18.8674 16.7262 18.832C16.8076 18.7959 17.0176 18.7649 17.1928 18.7627C17.3679 18.7599 17.5801 18.7843 17.6638 18.817C17.7475 18.8491 17.8993 18.955 18.0007 19.0525C18.1021 19.1495 18.2213 19.3163 18.265 19.4227C18.3094 19.5296 18.3448 19.7729 18.3437 19.963C18.3432 20.1874 18.3061 20.383 18.2396 20.5171C18.1825 20.6319 18.0578 20.7937 17.9625 20.8773C17.8666 20.9616 17.6826 21.0575 17.553 21.0913C17.4233 21.1251 17.1928 21.1372 17.0404 21.1179C16.888 21.099 16.6779 21.0275 16.5732 20.9594C16.4685 20.8918 16.3216 20.736 16.2463 20.6141C16.157 20.4695 16.0994 20.2772 16.0806 20.06C16.0606 19.8283 16.0794 19.6521 16.1426 19.4781C16.1925 19.3412 16.3111 19.1539 16.4058 19.0625Z" fill="white" fill-opacity="0.6"/>
</svg>
