<?xml version="1.0" encoding="UTF-8"?>
<!-- Собранное: python3 tools/build_icon_sprite.py. Не редактировать вручную. -->
<svg xmlns="http://www.w3.org/2000/svg" xmlns:xlink="http://www.w3.org/1999/xlink">
  <symbol id="i-arrow-dark" viewBox="0 0 14 12" fill="none"><path xmlns:ns0="http://www.w3.org/2000/svg" d="M0.777778 5.96296H13.2222M8.24444 11.1481L13.2222 5.96296L8.24444 0.777778" stroke="black" stroke-width="1.55556" stroke-linecap="round" stroke-linejoin="round" />
</symbol>
  <symbol id="i-arrow-left" viewBox="0 0 14 12" fill="none"><path xmlns:ns0="http://www.w3.org/2000/svg" d="M13.2222 5.96296H0.777777M5.75556 11.1481L0.777777 5.96296L5.75556 0.777778" stroke="#070B1F" stroke-width="1.55556" stroke-linecap="round" stroke-linejoin="round" />
</symbol>
  <symbol id="i-arrow-light" viewBox="0 0 14 12" fill="none"><path xmlns:ns0="http://www.w3.org/2000/svg" d="M0.777778 5.96296H13.2222M8.24444 11.1481L13.2222 5.96296L8.24444 0.777778" stroke="white" stroke-width="1.55556" stroke-linecap="round" stroke-linejoin="round" />
</symbol>
  <symbol id="i-arrow-right" viewBox="0 0 14 12" fill="none"><path xmlns:ns0="http://www.w3.org/2000/svg" d="M0.777778 5.96296H13.2222M8.24444 11.1481L13.2222 5.96296L8.24444 0.777778" stroke="#070B1F" stroke-width="1.55556" stroke-linecap="round" stroke-linejoin="round" />
</symbol>
  <symbol id="i-arrow-up-right" viewBox="0 0 13 13" fill="none"><path xmlns:ns0="http://www.w3.org/2000/svg" d="M0.5 11.5L12.5 0.5M12.5 12.5V0.5H0.5" stroke="currentColor" stroke-linecap="round" stroke-linejoin="round" />
</symbol>
  <symbol id="i-benefit-dot" viewBox="0 0 17 17" fill="none"><circle xmlns:ns0="http://www.w3.org/2000/svg" cx="8.49979" cy="8.49997" r="3.64286" fill="#FFC924" />
<circle xmlns:ns0="http://www.w3.org/2000/svg" cx="8.5" cy="8.5" r="8.5" fill="#FFC924" fill-opacity="0.4" />
</symbol>
  <symbol id="i-calculator" viewBox="0 0 22 22" fill="none"><path xmlns:ns0="http://www.w3.org/2000/svg" d="M3.96833 2.05316C3.9722 0.712093 3.99326 0.0509825 4.03261 0.0304787C4.06475 0.013854 4.42384 0 5.56929 0L5.597 4.07306L9.55923 4.10077L9.58693 5.56929H5.597V9.67006H3.98994L3.96223 5.597L0 5.56929V4.07306L3.96223 4.04535L3.96833 2.05316Z" fill="white" fill-opacity="0.6" />
<path xmlns:ns0="http://www.w3.org/2000/svg" d="M12.7312 4.91815C12.7229 4.59065 12.7257 4.26591 12.7368 4.19719L12.7573 4.07251L21.6953 4.10077V5.48616L12.7456 5.51387L12.7312 4.91815Z" fill="white" fill-opacity="0.6" />
<path xmlns:ns0="http://www.w3.org/2000/svg" d="M16.3975 11.6462C16.5355 11.4993 16.6824 11.4112 16.8741 11.3602C17.0265 11.3192 17.2509 11.2998 17.3729 11.317C17.4948 11.3336 17.6632 11.3813 17.7469 11.4229C17.8306 11.4644 17.963 11.5669 18.0412 11.6506C18.1193 11.7349 18.2196 11.8906 18.2639 11.997C18.3088 12.1039 18.3454 12.3533 18.346 12.5511C18.3465 12.8664 18.3238 12.9457 18.1647 13.1867C18.0644 13.3375 17.8954 13.512 17.7885 13.5747C17.6427 13.6589 17.4964 13.6872 17.2027 13.6872C16.8758 13.6872 16.7744 13.6639 16.5932 13.5453C16.4518 13.4533 16.3216 13.2976 16.2224 13.102C16.1216 12.9036 16.0695 12.7157 16.07 12.5511C16.0706 12.4142 16.0994 12.202 16.1343 12.0801C16.1692 11.9582 16.2873 11.7631 16.3975 11.6462Z" fill="white" fill-opacity="0.6" />
<path xmlns:ns0="http://www.w3.org/2000/svg" d="M0.592395 13.2909C0.658894 13.2045 0.886653 12.9651 1.09834 12.7589C1.31003 12.5533 1.50509 12.3854 1.53114 12.3854C1.55774 12.3854 2.29643 13.102 4.76576 15.5713L8.00703 12.3583L9.06048 13.4378L5.84637 16.6519L7.43957 18.2451C8.3157 19.1218 9.03278 19.8632 9.03333 19.8937C9.03333 19.9242 8.83993 20.1381 8.60386 20.3686C8.36723 20.5986 8.12839 20.823 8.07297 20.8674C7.98043 20.9405 7.84577 20.8197 4.76576 17.7325L3.17255 19.3257C2.29643 20.2018 1.55441 20.9189 1.52393 20.9195C1.49346 20.9195 1.25073 20.7017 0.984185 20.4346C0.717635 20.1675 0.499296 19.9242 0.499296 19.8937C0.499296 19.8632 1.21582 19.1218 3.68515 16.6519L0.471034 13.4489L0.592395 13.2909Z" fill="white" fill-opacity="0.6" />
<path xmlns:ns0="http://www.w3.org/2000/svg" d="M12.4686 16.9844V16.2363V15.4882H21.9447L21.9718 15.6128C21.9862 15.6816 21.999 16.0185 22.0001 16.9844H12.4686Z" fill="white" fill-opacity="0.6" />
<path xmlns:ns0="http://www.w3.org/2000/svg" d="M16.4058 19.0625C16.5006 18.971 16.6447 18.8674 16.7262 18.832C16.8076 18.7959 17.0176 18.7649 17.1928 18.7627C17.3679 18.7599 17.5801 18.7843 17.6638 18.817C17.7475 18.8491 17.8993 18.955 18.0007 19.0525C18.1021 19.1495 18.2213 19.3163 18.265 19.4227C18.3094 19.5296 18.3448 19.7729 18.3437 19.963C18.3432 20.1874 18.3061 20.383 18.2396 20.5171C18.1825 20.6319 18.0578 20.7937 17.9625 20.8773C17.8666 20.9616 17.6826 21.0575 17.553 21.0913C17.4233 21.1251 17.1928 21.1372 17.0404 21.1179C16.888 21.099 16.6779 21.0275 16.5732 20.9594C16.4685 20.8918 16.3216 20.736 16.2463 20.6141C16.157 20.4695 16.0994 20.2772 16.0806 20.06C16.0606 19.8283 16.0794 19.6521 16.1426 19.4781C16.1925 19.3412 16.3111 19.1539 16.4058 19.0625Z" fill="white" fill-opacity="0.6" />
</symbol>
  <symbol id="i-chevron-left" viewBox="0 0 8 14" fill="none"><path xmlns:ns0="http://www.w3.org/2000/svg" d="M6.4 1.4L1.4 7L6.4 12.6" stroke="currentColor" stroke-width="2.8" stroke-linecap="round" stroke-linejoin="round" />
</symbol>
  <symbol id="i-chevron-right" viewBox="0 0 8 14" fill="none"><path xmlns:ns0="http://www.w3.org/2000/svg" d="M1.6 1.4L6.6 7L1.6 12.6" stroke="currentColor" stroke-width="2.8" stroke-linecap="round" stroke-linejoin="round" />
</symbol>
  <symbol id="i-clock" viewBox="0 0 21 21" fill="none"><path xmlns:ns0="http://www.w3.org/2000/svg" d="M10.4998 1.16666C10.0168 1.16666 9.62484 1.55866 9.62484 2.04166V4.95832C9.62484 5.44132 10.0168 5.83332 10.4998 5.83332C10.9828 5.83332 11.3748 5.44132 11.3748 4.95832V2.96682C15.1455 3.40199 18.0832 6.61382 18.0832 10.5C18.0832 14.6813 14.6812 18.0833 10.4998 18.0833C6.3185 18.0833 2.9165 14.6813 2.9165 10.5C2.9165 8.47466 3.70517 6.56949 5.13784 5.13799C5.47967 4.79616 5.47967 4.24199 5.13784 3.90016C4.796 3.55832 4.24184 3.55832 3.9 3.90016C2.13717 5.66299 1.1665 8.00682 1.1665 10.5C1.1665 15.6462 5.35367 19.8333 10.4998 19.8333C15.646 19.8333 19.8332 15.6462 19.8332 10.5C19.8332 5.35382 15.646 1.16666 10.4998 1.16666Z" fill="white" fill-opacity="0.4" />
<path xmlns:ns0="http://www.w3.org/2000/svg" fill-rule="evenodd" clip-rule="evenodd" d="M6.38128 6.38128C6.72298 6.03957 7.27701 6.03957 7.61872 6.38128L11.1187 9.88128C11.4604 10.223 11.4604 10.777 11.1187 11.1187C10.777 11.4604 10.223 11.4604 9.88128 11.1187L6.38128 7.61872C6.03957 7.27701 6.03957 6.72298 6.38128 6.38128Z" fill="white" fill-opacity="0.4" />
</symbol>
  <symbol id="i-close" viewBox="0 0 10 10" fill="none"><path xmlns:ns0="http://www.w3.org/2000/svg" d="M9.2105 9.2105L5.00001 5.00001M5.00001 5.00001L0.789474 0.789474M5.00001 5.00001L9.21055 0.789474M5.00001 5.00001L0.789474 9.21055" stroke="white" stroke-width="1.57895" stroke-linecap="round" stroke-linejoin="round" />
</symbol>
  <symbol id="i-faq-plus" viewBox="0 0 9 9" fill="none"><path xmlns:ns0="http://www.w3.org/2000/svg" d="M0 5.32304V3.67696H3.68085V0H5.34043V3.67696H9V5.32304H5.34043V9H3.68085V5.32304H0Z" fill="black" />
</symbol>
  <symbol id="i-included-add" viewBox="0 0 24 24" fill="none"><path xmlns:ns0="http://www.w3.org/2000/svg" d="M16.19 2H7.81C4.17 2 2 4.17 2 7.81v8.37C2 19.83 4.17 22 7.81 22h8.37c3.64 0 5.81-2.17 5.81-5.81V7.81C22 4.17 19.83 2 16.19 2M18 12.75h-5.25V18c0 .41-.34.75-.75.75s-.75-.34-.75-.75v-5.25H6c-.41 0-.75-.34-.75-.75s.34-.75.75-.75h5.25V6c0-.41.34-.75.75-.75s.75.34.75.75v5.25H18c.41 0 .75.34.75.75s-.34.75-.75.75" fill="currentColor" />
</symbol>
  <symbol id="i-included-verify" viewBox="0 0 24 24" fill="none"><path xmlns:ns0="http://www.w3.org/2000/svg" d="m21.56 10.739-1.36-1.58c-.26-.3-.47-.86-.47-1.26v-1.7c0-1.06-.87-1.93-1.93-1.93h-1.7c-.39 0-.96-.21-1.26-.47l-1.58-1.36c-.69-.59-1.82-.59-2.52 0l-1.57 1.37c-.3.25-.87.46-1.26.46H6.18c-1.06 0-1.93.87-1.93 1.93v1.71c0 .39-.21.95-.46 1.25l-1.35 1.59c-.58.69-.58 1.81 0 2.5l1.35 1.59c.25.3.46.86.46 1.25v1.71c0 1.06.87 1.93 1.93 1.93h1.73c.39 0 .96.21 1.26.47l1.58 1.36c.69.59 1.82.59 2.52 0l1.58-1.36c.3-.26.86-.47 1.26-.47h1.7c1.06 0 1.93-.87 1.93-1.93v-1.7c0-.39.21-.96.47-1.26l1.36-1.58c.58-.69.58-1.83-.01-2.52m-5.4-.63-4.83 4.83a.75.75 0 0 1-1.06 0l-2.42-2.42a.754.754 0 0 1 0-1.06c.29-.29.77-.29 1.06 0l1.89 1.89 4.3-4.3c.29-.29.77-.29 1.06 0s.29.77 0 1.06" fill="currentColor" />
</symbol>
  <symbol id="i-mortgage-arrow" viewBox="0 0 14 12" fill="none"><path xmlns:ns0="http://www.w3.org/2000/svg" d="M0.777778 5.96296H13.2222M8.24444 11.1481L13.2222 5.96296L8.24444 0.777778" stroke="black" stroke-width="1.55556" stroke-linecap="round" stroke-linejoin="round" />
</symbol>
  <symbol id="i-object-cursor" viewBox="0 0 72 72" fill="none"><path xmlns:ns0="http://www.w3.org/2000/svg" d="M35 71.9854C35.3322 71.9944 35.6656 72 36 72H35V71.9854ZM37 72H36C36.3344 72 36.6678 71.9944 37 71.9854V72ZM35 71.9854C15.5801 71.4557 0 55.5478 0 36C0 16.4522 15.5801 0.543315 35 0.0136719V71.9854ZM37 0.0136719C56.4199 0.543315 72 16.4522 72 36C72 55.5478 56.4199 71.4557 37 71.9854V0.0136719ZM37 0.0136719C36.6678 0.00461089 36.3344 0 36 0C35.6656 0 35.3322 0.00461089 35 0.0136719V0H37V0.0136719Z" fill="white" />
<path xmlns:ns0="http://www.w3.org/2000/svg" d="M53 32L57 36L53 40" stroke="black" stroke-width="1.5" stroke-linecap="round" stroke-linejoin="round" />
<path xmlns:ns0="http://www.w3.org/2000/svg" d="M19 32L15 36L19 40" stroke="black" stroke-width="1.5" stroke-linecap="round" stroke-linejoin="round" />
</symbol>
  <symbol id="i-play" viewBox="0 0 33 32" fill="none"><mask xmlns:ns0="http://www.w3.org/2000/svg" id="mask0_315_557" style="mask-type:luminance" maskUnits="userSpaceOnUse" x="0" y="0" width="33" height="32">
<path d="M32.2988 0H0V32H32.2988V0Z" fill="white" />
</mask>
<g xmlns:ns0="http://www.w3.org/2000/svg" mask="url(#mask0_315_557)">
<path d="M0 11.6929C0 2.07216 2.0915 0 11.8021 0H20.4818C30.2073 0 32.2838 2.07216 32.2838 11.6929V20.2923C32.2838 29.9278 30.1923 31.9852 20.4818 31.9852H11.8021C2.07656 31.9852 0 29.913 0 20.2923V11.6929Z" fill="#0077FF" />
<path d="M17.3594 32H20.4369C29.9831 32 32.1941 30.0315 32.2987 20.9584V20.2923V11.6929C32.2987 11.4561 32.2987 11.2044 32.2987 10.9824C32.1941 1.96855 29.9532 0 20.4369 0H17.3594C7.58906 0 5.49756 2.07216 5.49756 11.6929V20.2923C5.49756 29.9426 7.58906 32 17.3594 32Z" fill="#FF2B42" />
<path d="M22.7974 13.2323C24.4258 14.1647 25.2475 14.6384 25.5164 15.2452C25.7554 15.778 25.7554 16.3849 25.5164 16.9177C25.2475 17.5246 24.4258 17.9982 22.7974 18.9307L18.3156 21.4913C16.6872 22.4237 15.8656 22.8974 15.1933 22.8234C14.6107 22.7642 14.0728 22.4533 13.7292 21.9945C13.3408 21.4617 13.3408 20.5144 13.3408 18.6495V13.5135C13.3408 11.6485 13.3408 10.7161 13.7292 10.1684C14.0728 9.69479 14.6107 9.39876 15.1933 9.33956C15.8656 9.26555 16.6872 9.73919 18.3156 10.6717L22.7974 13.2323Z" fill="white" />
</g>
</symbol>
  <symbol id="i-project-arrow" viewBox="0 0 14 12" fill="none"><path xmlns:ns0="http://www.w3.org/2000/svg" d="M0.777778 5.96296H13.2222M8.24444 11.1481L13.2222 5.96296L8.24444 0.777778" stroke="#070B1F" stroke-width="1.55556" stroke-linecap="round" stroke-linejoin="round" />
</symbol>
  <symbol id="i-question-arrow" viewBox="0 0 14 12" fill="none"><path xmlns:ns0="http://www.w3.org/2000/svg" d="M0.777778 5.96296H13.2222M8.24444 11.1481L13.2222 5.96296L8.24444 0.777778" stroke="black" stroke-width="1.55556" stroke-linecap="round" stroke-linejoin="round" />
</symbol>
  <symbol id="i-quote-arrow" viewBox="0 0 14 12" fill="none"><path xmlns:ns0="http://www.w3.org/2000/svg" d="M0.777778 5.96296H13.2222M8.24444 11.1481L13.2222 5.96296L8.24444 0.777778" stroke="black" stroke-width="1.55556" stroke-linecap="round" stroke-linejoin="round" />
</symbol>
  <symbol id="i-section-dot" viewBox="0 0 9 9" fill="none"><circle xmlns:ns0="http://www.w3.org/2000/svg" cx="4.5" cy="4.5" r="4.5" fill="#070b1f" />
</symbol>
  <symbol id="i-star" viewBox="0 0 22 21" fill="none"><path xmlns:ns0="http://www.w3.org/2000/svg" d="M11 0L13.5968 7.99207H22.0001L15.2017 12.9314L17.7985 20.9235L11 15.9841L4.20154 20.9235L6.79832 12.9314L-0.000139079 7.99207H8.40322L11 0Z" fill="#FFC924" />
</symbol>
  <symbol id="i-subscribe-arrow" viewBox="0 0 14 12" fill="none"><path xmlns:ns0="http://www.w3.org/2000/svg" d="M0.777778 5.96296H13.2222M8.24444 11.1481L13.2222 5.96296L8.24444 0.777778" stroke="#070B1F" stroke-width="1.55556" stroke-linecap="round" stroke-linejoin="round" />
</symbol>
  <symbol id="i-visit-arrow" viewBox="0 0 14 12" fill="none"><path xmlns:ns0="http://www.w3.org/2000/svg" d="M0.777778 5.96296H13.2222M8.24444 11.1481L13.2222 5.96296L8.24444 0.777778" stroke="black" stroke-width="1.55556" stroke-linecap="round" stroke-linejoin="round" />
</symbol>
  <symbol id="i-vk" viewBox="0 0 53 53" fill="none"><rect xmlns:ns0="http://www.w3.org/2000/svg" width="53" height="53" rx="15" fill="#2787F5" />
<path xmlns:ns0="http://www.w3.org/2000/svg" fill-rule="evenodd" clip-rule="evenodd" d="M19.0851 20H16.7877C16.1313 20 16 20.3221 16 20.6772C16 21.3116 16.7789 24.4575 19.6266 28.6182C21.525 31.4597 24.1998 33 26.6337 33C28.0941 33 28.2748 32.6579 28.2748 32.0687V29.9211C28.2748 29.2368 28.4131 29.1003 28.8755 29.1003C29.2163 29.1003 29.8004 29.2779 31.1634 30.6479C32.7212 32.2716 32.978 33 33.8541 33H36.1515C36.808 33 37.1362 32.6579 36.9468 31.9828C36.7397 31.3099 35.9959 30.3336 35.0091 29.1764C34.4736 28.5168 33.6704 27.8064 33.427 27.4512C33.0862 26.9945 33.1836 26.7915 33.427 26.3857C33.427 26.3857 36.226 22.2756 36.5181 20.8803C36.6641 20.3728 36.5181 20 35.8233 20H33.5259C32.9418 20 32.6725 20.3221 32.5264 20.6772C32.5264 20.6772 31.3581 23.6456 29.7031 25.5738C29.1676 26.1319 28.9242 26.3095 28.6321 26.3095C28.4861 26.3095 28.2747 26.1319 28.2747 25.6246V20.8803C28.2747 20.2714 28.1052 20 27.6183 20H24.0081C23.6431 20 23.4235 20.2826 23.4235 20.5504C23.4235 21.1276 24.251 21.2608 24.3363 22.8845V26.4111C24.3363 27.1842 24.2023 27.3244 23.9103 27.3244C23.1315 27.3244 21.2369 24.3428 20.1133 20.931C19.8931 20.2679 19.6722 20 19.0851 20Z" fill="white" />
</symbol>
  <symbol id="i-warning" viewBox="0 0 24 24" fill="none"><path xmlns:ns0="http://www.w3.org/2000/svg" d="M19.5099 5.85L13.5699 2.42C12.5999 1.86 11.3999 1.86 10.4199 2.42L4.48992 5.85C3.51992 6.41 2.91992 7.45 2.91992 8.58V15.42C2.91992 16.54 3.51992 17.58 4.48992 18.15L10.4299 21.58C11.3999 22.14 12.5999 22.14 13.5799 21.58L19.5199 18.15C20.4899 17.59 21.0899 16.55 21.0899 15.42V8.58C21.0799 7.45 20.4799 6.42 19.5099 5.85ZM11.2499 7.75C11.2499 7.34 11.5899 7 11.9999 7C12.4099 7 12.7499 7.34 12.7499 7.75V13C12.7499 13.41 12.4099 13.75 11.9999 13.75C11.5899 13.75 11.2499 13.41 11.2499 13V7.75ZM12.9199 16.63C12.8699 16.75 12.7999 16.86 12.7099 16.96C12.5199 17.15 12.2699 17.25 11.9999 17.25C11.8699 17.25 11.7399 17.22 11.6199 17.17C11.4899 17.12 11.3899 17.05 11.2899 16.96C11.1999 16.86 11.1299 16.75 11.0699 16.63C11.0199 16.51 10.9999 16.38 10.9999 16.25C10.9999 15.99 11.0999 15.73 11.2899 15.54C11.3899 15.45 11.4899 15.38 11.6199 15.33C11.9899 15.17 12.4299 15.26 12.7099 15.54C12.7999 15.64 12.8699 15.74 12.9199 15.87C12.9699 15.99 12.9999 16.12 12.9999 16.25C12.9999 16.38 12.9699 16.51 12.9199 16.63Z" fill="#FF0000" />
</symbol>
  <symbol id="i-whatsapp" viewBox="0 0 53 53" fill="none"><rect xmlns:ns0="http://www.w3.org/2000/svg" width="53" height="53" rx="15" fill="#25D366" />
<path xmlns:ns0="http://www.w3.org/2000/svg" fill-rule="evenodd" clip-rule="evenodd" d="M33.9402 19.0516C31.9664 17.0847 29.3412 16.001 26.5441 16C20.7805 16 16.0897 20.6677 16.0877 26.4052C16.0867 28.2393 16.5685 30.0296 17.4835 31.6073L16 37L21.543 35.553C23.0702 36.3823 24.7898 36.8189 26.5396 36.8194H26.5441C32.3067 36.8194 36.998 32.1511 37 26.4137C37.001 23.633 35.9145 21.019 33.9402 19.0521V19.0516ZM26.5441 35.0621H26.5406C24.9813 35.0616 23.4517 34.6444 22.1171 33.8566L21.7997 33.669L18.5103 34.5277L19.3882 31.3358L19.1816 31.0085C18.3118 29.6315 17.852 28.0398 17.853 26.4057C17.855 21.6372 21.7536 17.7573 26.5477 17.7573C28.8689 17.7583 31.0509 18.6589 32.6918 20.294C34.3328 21.9286 35.2357 24.102 35.2347 26.4127C35.2327 31.1817 31.3341 35.0616 26.5441 35.0616V35.0621ZM31.311 28.5846C31.0498 28.4544 29.7654 27.8257 29.5257 27.7389C29.2861 27.6521 29.1121 27.6087 28.9381 27.8691C28.7642 28.1296 28.2633 28.7154 28.1109 28.8885C27.9585 29.0621 27.806 29.0836 27.5448 28.9533C27.2836 28.8231 26.4418 28.5487 25.4436 27.663C24.6671 26.9735 24.1426 26.1223 23.9902 25.8618C23.8378 25.6014 23.9742 25.4607 24.1045 25.3314C24.2218 25.2147 24.3657 25.0276 24.4965 24.8759C24.6274 24.7242 24.6705 24.6155 24.7578 24.4423C24.845 24.2687 24.8014 24.117 24.7362 23.9868C24.671 23.8565 24.1486 22.5767 23.9305 22.0563C23.7184 21.5494 23.5029 21.6182 23.3429 21.6098C23.1905 21.6023 23.0166 21.6008 22.8421 21.6008C22.6676 21.6008 22.3848 21.6656 22.1452 21.9261C21.9056 22.1865 21.2307 22.8157 21.2307 24.095C21.2307 25.3743 22.1668 26.6113 22.2976 26.7849C22.4285 26.9586 24.1401 29.5846 26.7607 30.7112C27.3839 30.9791 27.8707 31.1393 28.2502 31.259C28.876 31.4571 29.4455 31.4292 29.8957 31.3623C30.3976 31.2875 31.4414 30.7331 31.659 30.1259C31.8766 29.5187 31.8766 28.9977 31.8114 28.8895C31.7463 28.7812 31.5718 28.7158 31.3106 28.5856L31.311 28.5846Z" fill="white" />
</symbol>
</svg>
